<svg width="196" height="40" viewBox="0 0 196 40" fill="none" xmlns="http://www.w3.org/2000/svg">
<path d="M29 13L10 20.5L17 21.5M29 13L26.5 28L17 21.5M29 13L17 21.5M17 21.5V27L20.2488 23.7229" stroke="#181C29" stroke-width="1.5" stroke-linecap="round" stroke-linejoin="round"/>
<path d="M77 10H74C72.6739 10 71.4021 10.5268 70.4645 11.4645C69.5268 12.4021 69 13.6739 69 15V18H66V22H69V30H73V22H76L77 18H73V15C73 14.7348 73.1054 14.4804 73.2929 14.2929C73.4804 14.1054 73.7348 14 74 14H77V10Z" stroke="#181C29" stroke-width="1.5" stroke-linecap="round" stroke-linejoin="round"/>
<path d="M124 24C126.209 24 128 22.2091 128 20C128 17.7909 126.209 16 124 16C121.791 16 120 17.7909 120 20C120 22.2091 121.791 24 124 24Z" stroke="#181C29" stroke-width="1.5" stroke-linecap="round" stroke-linejoin="round"/>
<path d="M115 24V16C115 13.2386 117.239 11 120 11H128C130.761 11 133 13.2386 133 16V24C133 26.7614 130.761 29 128 29H120C117.239 29 115 26.7614 115 24Z" stroke="#181C29" stroke-width="1.5"/>
<path d="M129.5 14.51L129.51 14.4989" stroke="#181C29" stroke-width="1.5" stroke-linecap="round" stroke-linejoin="round"/>
<path d="M180.82 28.7684L167.753 11.9684C167.447 11.5742 167.727 11 168.227 11H170.707C170.892 11 171.066 11.0855 171.18 11.2316L184.247 28.0316C184.553 28.4258 184.272 29 183.773 29H181.294C181.108 29 180.933 28.9145 180.82 28.7684Z" stroke="#181C29" stroke-width="1.5"/>
<path d="M184 11L168 29" stroke="#181C29" stroke-width="1.5" stroke-linecap="round"/>
</svg>
